<svg id="Capa_1" enable-background="new 0 0 512 512" height="512" viewBox="0 0 512 512" width="512" xmlns="http://www.w3.org/2000/svg"><g><path d="m138.54 240.462v50.597l-6.221 4.283c-14.293 9.841-22.826 26.076-22.826 43.43 0 29.074 23.654 52.729 52.729 52.729h187.543c29.074 0 52.729-23.654 52.729-52.772 0-17.321-8.509-33.539-22.76-43.384l-6.193-4.278v-50.604c0-49.42-31.82-92.63-78.282-107.622l20.649-74.34h-119.735l20.65 74.34c-46.463 14.991-78.283 58.201-78.283 107.621zm77.367-166.962h80.266l-15.833 57h-48.599zm11.131 72h58.003c43.316 11.223 73.499 50.142 73.499 94.962v58.473l12.668 8.751c10.197 7.044 16.285 18.648 16.285 31.086 0 20.804-16.925 37.729-37.729 37.729h-187.542c-20.804 0-37.729-16.925-37.729-37.729 0-12.417 6.105-24.033 16.333-31.075l12.714-8.755v-58.479c0-44.821 30.183-83.74 73.498-94.963zm-25.045 95c0-18.196 14.804-33 33-33h13.5v-28.5h15v28.5h39v15h-67.5c-9.925 0-18 8.075-18 18s8.075 18 18 18h42c18.196 0 33 14.804 33 33s-14.804 33-33 33h-13.5v28.5h-15v-28.5h-39v-15h67.5c9.925 0 18-8.075 18-18s-8.075-18-18-18h-42c-18.196 0-33-14.804-33-33zm-186.987 13.004-14.999-.151c.052-5.132.259-10.322.615-15.429l14.964 1.044c-.336 4.81-.531 9.701-.58 14.536zm3.455 43.469c4.727 27.604 14.173 53.951 28.075 78.31l-13.027 7.436c-14.772-25.884-24.809-53.881-29.833-83.215zm-2.021-14.406-14.911 1.633c-.558-5.093-.969-10.274-1.221-15.401l14.981-.738c.238 4.829.625 9.71 1.151 14.506zm.592-58.068-14.874-1.941c7.975-61.101 37.911-117.345 84.295-158.373 46.794-41.39 107.005-64.185 169.54-64.185 35.797 0 70.433 7.249 102.944 21.546 25.852 11.369 49.344 26.731 70.056 45.764v-31.31h15v57.5h-57.5v-15h32.511c-44.535-41.064-101.793-63.5-163.011-63.5-120.642 0-223.373 90.064-238.961 209.499zm479.514 16.685 14.973-.908c.31 5.115.47 10.312.475 15.447l-15 .014c-.006-4.839-.156-9.735-.448-14.553zm-3.503-28.88 14.754-2.701c.923 5.037 1.704 10.179 2.323 15.28l-14.891 1.807c-.583-4.804-1.318-9.644-2.186-14.386zm3.534 57.978 14.975.875c-7.89 135.052-120.145 240.843-255.559 240.843-72.365 0-140.044-29.966-188.5-82.802v29.802h-15v-57.5h57.5v15h-33.781c45.766 51.333 110.498 80.5 179.781 80.5 127.481 0 233.157-99.586 240.584-226.718zm-6.588-72.199c-6.875-27.865-18.603-54.059-34.858-77.853l12.385-8.461c17.271 25.278 29.731 53.109 37.036 82.72z" fill="#233d91"/></g></svg>